<?xml version="1.0" encoding="utf-8"?>
<!-- Generator: Adobe Illustrator 25.4.1, SVG Export Plug-In . SVG Version: 6.00 Build 0)  -->
<svg version="1.1" id="Layer_1" xmlns="http://www.w3.org/2000/svg" xmlns:xlink="http://www.w3.org/1999/xlink" x="0px" y="0px"
	 viewBox="0 0 110.1 64" style="enable-background:new 0 0 110.1 64;" xml:space="preserve">
<g>
	<path d="M16.1,5.3c0-0.6-0.5-1-1-1c-0.6,0-1,0.5-1,1v8.3h2V5.3z"/>
	<path d="M104.1,57.7h-7l-1.3,2h8.3c0.6,0,1-0.5,1-1C105.1,58.1,104.6,57.7,104.1,57.7z"/>
	<path d="M6.1,57.7c-0.6,0-1,0.5-1,1c0,0.6,0.5,1,1,1h6.8l-3.1-2H6.1z"/>
	<polygon points="102.2,46.1 92,46.1 78.4,46.1 64.8,46.1 51.2,46.1 37.6,46.1 24,46.1 18.5,46.1 11.6,46.1 7.1,46.1 7.1,53.3 
		16.6,59.7 93.3,59.7 	"/>
	<path d="M10.6,35c0-0.6,0.5-1,1-1h6.9c0.6,0,1,0.5,1,1v9.1h3.4v-6.6v-7.7v-7.7v-6.4H7.1v28.4h3.4V35H10.6z"/>
	<rect x="12.6" y="36" width="4.8" height="8.1"/>
	<rect x="25" y="38.5" width="11.6" height="5.6"/>
	<rect x="38.6" y="38.5" width="11.6" height="5.6"/>
	<rect x="52.2" y="38.5" width="11.6" height="5.6"/>
	<rect x="65.8" y="38.5" width="11.6" height="5.6"/>
	<rect x="79.4" y="38.5" width="11.6" height="5.6"/>
	<rect x="25" y="30.8" width="11.6" height="5.6"/>
	<rect x="38.6" y="30.8" width="11.6" height="5.6"/>
	<rect x="52.2" y="30.8" width="11.6" height="5.6"/>
	<rect x="25" y="23.2" width="11.6" height="5.6"/>
	<rect x="38.6" y="23.2" width="11.6" height="5.6"/>
	<rect x="52.2" y="23.2" width="11.6" height="5.6"/>
	<rect x="65.8" y="30.8" width="11.6" height="5.6"/>
	<rect x="79.4" y="30.8" width="11.6" height="5.6"/>
</g>
</svg>
