<svg id="layer" xmlns="http://www.w3.org/2000/svg" viewBox="0 0 229.81 222.39"><path d="M225.85,88.07c-15.6-12.5-35.9-16.3-44.5-17.4-4.7-7-14.6-20.8-24.1-29.6-13.1-12.1-30.3-23.2-50.7-20.4s-33.8,24.4-30.5,55.7c0,0,6.1-17.6,20.7-21.7,13.7-3.8,31.1,5.1,45.7,16.2-44.2,6.5-68.1,24-73.2,28.1a216.78,216.78,0,0,1-2.8-39.3s-9,20-9.4,49.7c-30.2,25.3-40.7,67.1-40.7,67.1,19.2-29,37.7-40.6,42.3-43.3a148.64,148.64,0,0,0,8.5,31.9c-6.2,4.6-25.4,20.6-36.5,53.8,0,0,17.5-27.1,41.9-40.1,2.2,5.4,11.9,27.2,29.2,43.6,19.9,18.9,35.3,21.7,52,19.7s36.1-18.9,34.5-55.7c0,0-7.6,25.5-28.5,26.5-20.6,1-43.7-13.8-64.8-44.1,4.9-1.3,13.9-3.5,20.5-3.8,9.3-.5,25.5.2,35.6,4.8s18.2,14.6,9.1,23.5c0,0,20.7-3,20.9-21.4s-29.8-26.2-35.6-27.2c-5.6-1-31.2-4.2-59.2,9.4a171,171,0,0,1-11.4-30c41.3-20.9,89.3-15.4,101.2-13.6,7,10.9,27.1,48.3,14.1,103.8,0,0,30.6-37.2,13.1-96.4,30.3,14.6,11.1,33.4,11.1,33.4,15.5-2.5,26.9-11.2,30.4-22.7,3.6-11.8,1.3-24.3-18.9-40.5" transform="translate(-16.35 -20.23)"/></svg>